<svg id="已绑定" xmlns="http://www.w3.org/2000/svg" width="15.969" height="15.969" viewBox="0 0 15.969 15.969">
  <metadata><?xpacket begin="﻿" id="W5M0MpCehiHzreSzNTczkc9d"?>
<x:xmpmeta xmlns:x="adobe:ns:meta/" x:xmptk="Adobe XMP Core 5.6-c138 79.159824, 2016/09/14-01:09:01        ">
   <rdf:RDF xmlns:rdf="http://www.w3.org/1999/02/22-rdf-syntax-ns#">
      <rdf:Description rdf:about=""/>
   </rdf:RDF>
</x:xmpmeta>
                                                                                                    
                                                                                                    
                                                                                                    
                                                                                                    
                                                                                                    
                                                                                                    
                                                                                                    
                                                                                                    
                                                                                                    
                                                                                                    
                                                                                                    
                                                                                                    
                                                                                                    
                                                                                                    
                                                                                                    
                                                                                                    
                                                                                                    
                                                                                                    
                                                                                                    
                                                                                                    
                           
<?xpacket end="w"?></metadata>
<defs>
    <style>
      .cls-1 {
        fill: #8aca36;
      }

      .cls-2 {
        fill: #fff;
        fill-rule: evenodd;
      }
    </style>
  </defs>
  <circle class="cls-1" cx="7.984" cy="7.985" r="7.984"/>
  <path class="cls-2" d="M62.608,325.433a1.668,1.668,0,0,1,.011-2.526l0.681-.634,0.675,0.629-0.681.634a0.832,0.832,0,0,0-.005,1.263,0.981,0.981,0,0,0,1.356,0l2.722-2.535A0.87,0.87,0,0,0,67.372,321a1.032,1.032,0,0,0-1.356,0l0.665,0.619a1.96,1.96,0,0,1-2.722,0,1.662,1.662,0,0,1,0-2.535l2.722-2.536a1.973,1.973,0,0,1,2.722,0,1.672,1.672,0,0,1,0,2.536l-0.681.633-0.68-.633,0.68-.634a0.834,0.834,0,0,0,0-1.268,0.982,0.982,0,0,0-1.361,0l-2.722,2.535a0.872,0.872,0,0,0,0,1.268,1.034,1.034,0,0,0,1.361,0l-0.659-.614a1.956,1.956,0,0,1,2.712-.01,1.658,1.658,0,0,1-.01,2.525l-2.722,2.536A1.968,1.968,0,0,1,62.608,325.433Z" transform="translate(-58 -313)"/>
</svg>
