<?xml version="1.0" encoding="utf-8"?>
<!-- Generator: Adobe Illustrator 21.0.0, SVG Export Plug-In . SVG Version: 6.00 Build 0)  -->
<svg version="1.1" id="Layer_1" xmlns="http://www.w3.org/2000/svg" xmlns:xlink="http://www.w3.org/1999/xlink" x="0px" y="0px"
	 viewBox="0 0 440.6 66.7" style="enable-background:new 0 0 440.6 66.7;" xml:space="preserve">
<style type="text/css">
	.st0{fill:#FFFFFF;}
</style>
<path id="云盾" class="st0" d="M181.5,8.7H155c-1-2.9-2.1-5.7-3.5-8.4l-2.7,0.5c1.4,2.5,2.6,5.1,3.6,7.8h-27.9v14h2.4V11.1H179
	v11.7h2.4V8.7z M121.7,28.9v2.4h19.1c-2.4,4.2-5.1,8.4-7.8,12.6c7.2,2.3,14.3,5,21.2,8.1c-0.1,0.1-0.4,0.3-0.6,0.6
	c-8.1,6.5-18.4,9.7-30.9,9.9l1.4,2.3c13.7-0.4,24.5-4.2,32.3-11.4l0.2-0.2c8.3,3.6,16.3,7.8,24.1,12.4l1.5-2
	c-7.7-4.5-15.7-8.6-23.8-12.2c4.5-4.9,8.4-11.5,11.4-19.9h14.8v-2.4h-39.3c2-3.6,4.1-7.6,6.4-11.9l-2.4-0.8c-2.2,4.2-4.5,8.4-7,12.7
	L121.7,28.9L121.7,28.9z M143.7,31.3h23.4c-2.8,7.8-6.5,14.1-11.1,18.9c-6.3-2.8-12.8-5.3-19.4-7.4
	C138.8,39.5,141.1,35.7,143.7,31.3L143.7,31.3z M240.1,27.9v2.2h16.4c-1.9,2.7-4,5.2-6.5,7.5v5.5h-11.5v2.3h11.5v14.7
	c0,2.1-1.1,3.2-3.1,3.2c-1.7,0-4-0.1-6.9-0.2l0.6,2.3h7.2c3,0,4.5-1.6,4.5-4.6V45.5h11.3v-2.3h-11.3v-4.9c2.6-2.6,5-5.5,7.1-8.6
	v-1.8L240.1,27.9L240.1,27.9z M260.3,10.6c-1.1,4.5-2.7,8.9-4.8,13l2,0.8c2.1-4.2,3.8-8.7,4.8-13.3L260.3,10.6z M207.3,19.3
	l-1.7,0.6c2.3,3.5,4.2,7.2,5.6,11.2l1.8-0.5C211.5,26.6,209.6,22.9,207.3,19.3L207.3,19.3z M240.5,13.4l-1.9,0.6
	c1.6,3.4,2.9,7,3.9,10.6l2-0.6C243.5,20.4,242.2,16.8,240.5,13.4L240.5,13.4z M248.6,11.6l-1.9,0.6c1.4,3.4,2.6,6.8,3.5,10.4
	l1.9-0.6C251.2,18.5,250,15,248.6,11.6L248.6,11.6z M225.7,20.2l-1.7,0.6c2.5,4.8,4.5,9.7,6.2,14.8l1.7-0.8
	C230.2,29.8,228.1,24.9,225.7,20.2L225.7,20.2z M261.9,2.4c-6.2,2.5-14.3,3.8-24.2,3.9l0.8,2.2c10.2,0,18.4-1.4,24.5-4L261.9,2.4z
	 M213.3,12.2v21.5c-0.1,2.2-0.2,4.2-0.4,6.4c-2.5,1.7-5.1,3.2-7.8,4.6V9.6c5.3-1.9,9.5-4.1,12.4-6.5l-1.4-1.9
	c-3,2.4-7.3,4.7-13.2,6.8v35.5c0.1,1.2-0.5,2.4-1.7,2.9l0.7,2.1c3.9-2,7.5-4,10.7-5.8c-1.6,9.6-5.6,16.8-12.1,21.8l1.8,1.6
	c8.6-6.8,13-17.6,13.2-32.4V12.2L213.3,12.2L213.3,12.2z M230.1,51.8c2.9,0,4.4-1.7,4.4-5V6.5h-12.9v59.3h2.3V8.6h8.4v37.7
	c0,2.2-1,3.2-3,3.2l-3.1-0.1l0.6,2.4L230.1,51.8L230.1,51.8z M301.6,23.5v2.4h20.5v40.4h2.6V25.9h19.5v-2.4h-19.5V0.8h-2.6v22.7
	L301.6,23.5L301.6,23.5z M285.8,1.8l-1.7,1.7c4.7,3.5,9.1,7.5,13.1,11.9l1.7-1.7C294.9,9.2,290.5,5.3,285.8,1.8L285.8,1.8z
	 M279.1,23.7v2.4h11.5v32.3c-0.1,0.8-0.5,1.6-1.2,2.1l1,2.2c4.9-3.3,9.5-7.1,13.7-11.3l-0.6-2.6c-3.3,3.3-6.8,6.3-10.5,9.2V23.7
	L279.1,23.7L279.1,23.7z M402.2,7.1v45.6h2.4V7.1H402.2z M413.7,65.5c3.6,0,5.5-1.9,5.5-5.6V1.1h-2.4v58.2c0,2.7-1.3,4.1-3.9,4.1
	c-3.2,0-6.6-0.1-10-0.2l0.5,2.4L413.7,65.5L413.7,65.5z M393.6,17.8l-21.8,3.5c-0.6-6-0.8-12.8-0.8-20.3h-2.4
	c0,7.6,0.3,14.5,0.9,20.7l-10.6,1.7l0.4,2.4l10.4-1.7c0.5,4.9,1.3,9.8,2.4,14.6c0.9,3.5,1.8,6.7,2.8,9.6c-4.9,4.8-10.8,8.5-17.1,11
	l1.4,2.2c6.1-2.6,11.8-6.2,16.7-10.7c1,2.8,2.4,5.5,4.2,8c3.2,4.5,6.3,6.8,9.4,6.8c1.6,0,3-1.6,4.2-4.6c1.1-3.1,2-6.2,2.7-9.4
	l-2-1.4c-1.8,8.4-3.4,12.7-5,13c-2.4-0.1-5.1-2.3-8.1-6.8c-1.4-2.4-2.6-4.9-3.5-7.5c5.8-6,10.5-13.1,13.8-20.7l-2.2-1.2
	c-3.1,7.1-7.3,13.6-12.5,19.3c-1.1-3.1-2-6.2-2.7-9.4c-1-4.4-1.7-8.8-2.1-13.2l21.9-3.5L393.6,17.8z M380.7,0.8l-2.1,1.1
	c2.9,3.3,5.6,6.9,7.9,10.7l2.2-1.1C386.3,7.8,383.6,4.2,380.7,0.8L380.7,0.8z M114.6,5c0.1,1.1,0.4,2.1,1,3c-0.3,0.4-0.6,0.7-1,1
	c-2.1-1.1-3-4-3-4V0h5v5H114.6z M106.6,5c0.1,1.1,0.4,2.1,1,3c-0.3,0.4-0.6,0.7-1,1c-2.1-1.1-3-4-3-4V0h5v5H106.6z M429.6,5
	c-0.1,1.1-0.4,2.1-1,3c0.3,0.4,0.6,0.7,1,1c2.1-1.1,3-4,3-4V0h-5v5H429.6z M437.6,5c-0.1,1.1-0.4,2.1-1,3c0.3,0.4,0.6,0.7,1,1
	c2.1-1.1,3-4,3-4V0h-5v5H437.6z M4.4,27.8v1.6h32.3v-1.6L4.4,27.8L4.4,27.8z M0,40.9v1.6h16.6C11.3,53.4,7,60,3.8,62.4
	c-0.1,0.1-0.3,0.1-0.4,0.2l0.4,1.5c11.4-0.6,21.8-1.5,31.4-2.5c0.9,1.7,1.7,3.5,2.5,5.2l1.3-1c-2.9-6-6.3-11.7-10-17.2l-1.3,0.8
	c2.5,3.7,4.7,7.3,6.6,10.8c-9.4,1.1-18.9,1.9-28.4,2.3c3.4-3.3,7.5-9.9,12.3-20h22.5v-1.6H0z M88.4,25.3
	c-10.8,1.8-21.7,2.8-32.7,2.8v18.1c-0.2,8-2,14.2-5.4,18.7l1.1,1.1c3.7-5,5.6-11.6,5.8-19.9v-9.8h16.9c-0.2,1.9-0.4,3.8-0.6,5.7
	H62.3v24.1h1.6v-2.6h22v2.6h1.5V42.1H75.1c0.3-1.8,0.5-3.7,0.7-5.7h15.8v-1.5H75.8c0.1-1.7,0.3-3.4,0.4-5.2l-1.5-0.2
	c-0.1,1.8-0.2,3.7-0.4,5.5H57.3v-5.4c10.7-0.1,21.3-1,31.9-2.8L88.4,25.3z M63.9,62.1v-5.5h22v5.5H63.9L63.9,62.1z M63.9,55.2v-5.1
	h22v5.1L63.9,55.2L63.9,55.2z M63.9,48.7v-5.2h22v5.2H63.9L63.9,48.7z"/>
</svg>
