<?xml version="1.0" encoding="utf-8"?>
<!-- Generator: Adobe Illustrator 21.0.0, SVG Export Plug-In . SVG Version: 6.00 Build 0)  -->
<svg version="1.1" id="Layer_1" xmlns="http://www.w3.org/2000/svg" xmlns:xlink="http://www.w3.org/1999/xlink" x="0px" y="0px"
	 viewBox="0 0 60 60" style="enable-background:new 0 0 60 60;" xml:space="preserve">
<style type="text/css">
	.st0{fill-rule:evenodd;clip-rule:evenodd;fill:#848484;}
</style>
<path class="st0" d="M56.7,7.7c0,14.4-6.4,38.1-26.4,51.3C10.4,45.8,4,22,4,7.6C15.9,0.5,30.6,1,30.6,1v0C33.1,1,46,1.3,56.7,7.7z
	 M11.7,26.6c0,10.5,8.4,18.9,18.8,18.9c10.4,0,18.8-8.5,18.8-18.9c0-10.5-8.4-18.9-18.8-18.9C20.1,7.6,11.7,16.1,11.7,26.6z
	 M30.6,42c0,0-14.9-0.2-14.9-15.2c0-7.9,5.9-14.4,13.5-15.3c-3.3,0.9-5.8,3.9-5.8,7.5c0,7.5,5.7,7.6,7.7,7.6c4.2,0,7.7,3.5,7.7,7.8
	C38.7,41,32.1,42,30.6,42z M30.6,31.8c-1.3,0-2.4,1.1-2.4,2.4s1.1,2.4,2.4,2.4c1.3,0,2.4-1.1,2.4-2.4S31.9,31.8,30.6,31.8z
	 M30.6,20.9c-1.3,0-2.4-1.1-2.4-2.4s1.1-2.4,2.4-2.4c1.3,0,2.4,1.1,2.4,2.4S31.9,20.9,30.6,20.9z"/>
</svg>
