<?xml version="1.0" encoding="utf-8"?>
<!-- Generator: Adobe Illustrator 21.0.0, SVG Export Plug-In . SVG Version: 6.00 Build 0)  -->
<svg version="1.1" id="Layer_1" xmlns="http://www.w3.org/2000/svg" xmlns:xlink="http://www.w3.org/1999/xlink" x="0px" y="0px"
	 viewBox="0 0 60 60" style="enable-background:new 0 0 60 60;" xml:space="preserve">
<style type="text/css">
	.st0{fill:#d8000e;}
</style>
<g>
	<path class="st0" d="M30.6,1L30.6,1c0,0-14.6-0.5-26.6,6.6C4,22,10.4,45.8,30.4,59C50.3,45.8,56.7,22.1,56.7,7.7
		C46,1.3,33.1,1,30.6,1z M30.5,45.5c-10.4,0-18.8-8.5-18.8-18.9c0-10.5,8.4-18.9,18.8-18.9c10.4,0,18.8,8.5,18.8,18.9
		C49.3,37,40.8,45.5,30.5,45.5z M34.5,21.1l-4.2-10.4l-4,10.4H15.9l8.6,6.9l-3.1,11.1l9.2-6.2l9.2,6l-3.3-10.4l8.6-7.3H34.5z"/>
</g>
</svg>
