<?xml version="1.0" standalone="no"?><!DOCTYPE svg PUBLIC "-//W3C//DTD SVG 1.1//EN" "http://www.w3.org/Graphics/SVG/1.1/DTD/svg11.dtd"><svg t="1508224470122" class="icon" style="" viewBox="0 0 3904 1024" version="1.1" xmlns="http://www.w3.org/2000/svg" p-id="3002" xmlns:xlink="http://www.w3.org/1999/xlink" width="762.5" height="200"><defs><style type="text/css"></style></defs><path d="M128 0h3648c70.4 0 128 57.6 128 128v768c0 70.4-57.6 128-128 128H128c-70.4 0-128-57.6-128-128V128C0 57.6 57.6 0 128 0z" fill="#FE8520" p-id="3003"></path><path d="M608 128L256 320v384l352 192 352-192V320L608 128z m281.6 537.6l-281.6 153.6-281.6-153.6V358.4l281.6-153.6 281.6 153.6v307.2z" fill="#FFFFFF" p-id="3004"></path><path d="M608 672m-32 0a32 32 0 1 0 64 0 32 32 0 1 0-64 0Z" fill="#FFFFFF" p-id="3005"></path><path d="M576 448a128 32 90 1 0 64 0 128 32 90 1 0-64 0Z" fill="#FFFFFF" p-id="3006"></path><path d="M1312 595.2c12.8 19.2 32 38.4 44.8 57.6-44.8 19.2-83.2 38.4-121.6 51.2V550.4h140.8v12.8h44.8V275.2h-224v416c0 12.8-6.4 32-19.2 44.8l32 38.4c12.8-6.4 19.2-19.2 32-25.6 38.4-19.2 83.2-38.4 140.8-64 12.8 19.2 32 38.4 44.8 57.6l38.4-25.6c-32-44.8-70.4-89.6-115.2-147.2l-38.4 25.6z m172.8 198.4h44.8V326.4h115.2v288c0 19.2-6.4 38.4-25.6 38.4h-6.4c-12.8 0-32 0-64-6.4 6.4 19.2 6.4 32 6.4 51.2h64c32 6.4 64-19.2 70.4-51.2V281.6h-198.4l-6.4 512zM1241.6 512V435.2h140.8V512h-140.8z m140.8-115.2h-140.8V320h140.8v76.8z m537.6 19.2c32-19.2 57.6-44.8 83.2-70.4h204.8c-38.4 38.4-83.2 64-128 89.6-19.2-12.8-38.4-32-70.4-57.6l-25.6 25.6c25.6 12.8 44.8 32 64 44.8-44.8 19.2-89.6 32-140.8 38.4l19.2 38.4c172.8-44.8 288-108.8 339.2-185.6v-32h-224c12.8-12.8 32-32 44.8-51.2l-38.4-19.2c-44.8 57.6-96 108.8-153.6 147.2 6.4 12.8 19.2 19.2 25.6 32z m-19.2 172.8h262.4V704c6.4 19.2-6.4 32-25.6 38.4h-6.4c-19.2 0-44.8 0-76.8-6.4 6.4 19.2 6.4 32 6.4 44.8h76.8c32 6.4 64-19.2 70.4-51.2V582.4h83.2v-38.4h-83.2V473.6h-44.8v70.4h-262.4v44.8z m-70.4-70.4c-38.4 44.8-70.4 76.8-102.4 108.8l32 38.4c25.6-32 51.2-57.6 76.8-89.6v217.6h44.8V243.2h-44.8l-6.4 275.2z m-44.8-64l38.4-25.6c-19.2-38.4-38.4-76.8-57.6-102.4l-38.4 19.2c19.2 25.6 32 64 57.6 108.8z m256 256l38.4-25.6c-25.6-25.6-51.2-51.2-76.8-83.2l-32 25.6c19.2 19.2 44.8 51.2 70.4 83.2z m480-345.6c12.8 19.2 25.6 38.4 38.4 64-57.6 6.4-108.8 12.8-160 12.8 32-44.8 57.6-83.2 83.2-128h166.4v-38.4h-320v38.4H2432c-12.8 25.6-25.6 51.2-44.8 70.4-12.8 25.6-32 44.8-57.6 57.6l19.2 44.8c70.4-6.4 147.2-12.8 230.4-25.6l19.2 38.4c12.8-6.4 32-12.8 44.8-25.6-25.6-51.2-51.2-96-83.2-140.8l-38.4 32z m-192 236.8h134.4V704c-51.2 6.4-102.4 12.8-147.2 19.2l12.8 44.8c108.8-12.8 211.2-32 320-44.8v-44.8l-134.4 19.2V601.6h128v-38.4h-128V492.8h-44.8v70.4h-134.4v38.4h-6.4z m467.2 102.4c0 19.2-6.4 32-25.6 38.4h-12.8c-19.2 0-44.8 0-76.8-6.4 6.4 19.2 6.4 38.4 6.4 51.2h83.2c32 6.4 64-19.2 70.4-51.2V236.8h-44.8V704z m-121.6-44.8h44.8V300.8h-44.8v358.4z m544-185.6c0 64 0 128-12.8 185.6-12.8 38.4-32 76.8-57.6 108.8 12.8 12.8 25.6 19.2 32 32 44.8-57.6 70.4-128 76.8-204.8h121.6v115.2c0 12.8-6.4 25.6-25.6 32h-6.4c-12.8 0-32 0-57.6-6.4 0 19.2 6.4 32 6.4 44.8h64c32 6.4 57.6-19.2 64-51.2V262.4h-198.4l-6.4 211.2z m-332.8 179.2h300.8v-38.4h-44.8v-256h44.8V320h-44.8V249.6h-44.8V320h-115.2V249.6H2944V320h-44.8v38.4h44.8v262.4h-51.2l-6.4 32zM3257.6 448h115.2v108.8h-115.2V448z m115.2-38.4h-115.2V300.8h115.2v108.8z m-390.4 140.8h115.2v64h-115.2v-64z m0-96h115.2v64h-115.2v-64z m0-96h115.2v64h-115.2v-64zM2886.4 768c12.8 6.4 19.2 19.2 32 32 32-25.6 64-64 102.4-102.4l-32-25.6c-38.4 32-70.4 64-102.4 96z m243.2-12.8l32-32-76.8-57.6-25.6 25.6c25.6 19.2 44.8 38.4 70.4 64z" fill="#FFFFFF" p-id="3007"></path></svg>