<?xml version="1.0" standalone="no"?><!DOCTYPE svg PUBLIC "-//W3C//DTD SVG 1.1//EN" "http://www.w3.org/Graphics/SVG/1.1/DTD/svg11.dtd"><svg t="1508842744437" class="icon" style="" viewBox="0 0 1024 1024" version="1.1" xmlns="http://www.w3.org/2000/svg" p-id="3310" xmlns:xlink="http://www.w3.org/1999/xlink" width="18" height="18"><defs><style type="text/css"></style></defs><path d="M547.874045 127.275755c-13.639648-6.415107-29.739325-4.297886-41.323151 5.325285L283.180548 318.509171l-178.029696-0.716314-0.155543 0c-10.245342 0-20.117177 4.048199-27.372418 11.304464-7.317663 7.255241-11.460006 17.127076-11.460006 27.465538L65.35345 667.249877c0 10.338463 4.048199 20.240997 11.335163 27.52796 7.255241 7.349385 17.158798 11.428284 27.497261 11.428284l180.146916 0L506.581594 891.429659c7.099698 5.916756 15.974833 8.968256 24.849968 8.968256 5.605671 0 11.210319-1.214664 16.473183-3.674693 13.639648-6.383384 22.35924-20.085454 22.35924-35.157731L570.263985 162.433486C570.263985 147.391908 561.544393 133.690862 547.874045 127.275755L547.874045 127.275755zM698.468902 321.467549c-19.151176-9.061376-41.914622-0.809435-51.225685 18.248619-9.279341 19.120476-1.245364 42.257429 17.750269 51.817156 2.460028 1.277086 60.629869 31.513738 60.629869 117.616768 0 91.989087-54.402027 122.475426-56.208163 123.471103-19.182898 9.591449-26.967188 32.946366-17.376763 52.129264 6.851035 13.639648 20.521383 21.48636 34.814923 21.48636 5.823636 0 11.771091-1.307785 17.314341-4.079922 4.048199-2.054799 99.119485-51.257407 99.119485-193.007829C803.287179 372.381126 702.735066 323.491649 698.468902 321.467549L698.468902 321.467549zM819.386856 207.399607c-17.905812-11.490705-41.665958-6.259564-53.374628 11.615549-11.646248 17.874089-6.53995 41.914622 11.272741 53.685713 4.203742 2.771113 103.697757 70.564126 103.697757 239.313457 0 169.123862-95.444792 236.978273-99.244328 239.563144-17.874089 11.926634-22.670326 35.997865-10.774391 53.872978 7.473205 11.210319 19.805068 17.282618 32.354895 17.282618 7.380084 0 14.885012-2.148943 21.518083-6.53995 5.449106-3.612271 133.810588-91.614557 133.810588-304.210513C958.64655 298.983465 825.085648 211.0436 819.386856 207.399607L819.386856 207.399607z" p-id="3311" fill="#2d90e6"></path></svg>