<?xml version="1.0" standalone="no"?><!DOCTYPE svg PUBLIC "-//W3C//DTD SVG 1.1//EN" "http://www.w3.org/Graphics/SVG/1.1/DTD/svg11.dtd"><svg t="1510034257706" class="icon" style="" viewBox="0 0 1024 1024" version="1.1" xmlns="http://www.w3.org/2000/svg" p-id="4979" xmlns:xlink="http://www.w3.org/1999/xlink" width="200" height="200"><defs><style type="text/css"></style></defs><path d="M778.24 660.48c-81.92-66.56-102.4-30.72-138.24 5.12-25.6 25.6-92.16-25.6-143.36-81.92C440.32 527.36 384 460.8 409.6 435.2c35.84-35.84 66.56-61.44 5.12-138.24-66.56-81.92-107.52-20.48-143.36 15.36-40.96 40.96 0 194.56 148.48 343.04s302.08 189.44 343.04 148.48c35.84-35.84 97.28-76.8 15.36-143.36z" fill="#429FE9" p-id="4980"></path><path d="M921.6 0H102.4C46.08 0 0 46.08 0 102.4v819.2c0 56.32 46.08 102.4 102.4 102.4h819.2c56.32 0 102.4-46.08 102.4-102.4V102.4c0-56.32-46.08-102.4-102.4-102.4z m51.2 921.6c0 30.72-20.48 51.2-51.2 51.2H102.4c-30.72 0-51.2-20.48-51.2-51.2V102.4c0-30.72 20.48-51.2 51.2-51.2h819.2c30.72 0 51.2 20.48 51.2 51.2v819.2z" fill="#429FE9" p-id="4981"></path></svg>