<?xml version="1.0" standalone="no"?><!DOCTYPE svg PUBLIC "-//W3C//DTD SVG 1.1//EN" "http://www.w3.org/Graphics/SVG/1.1/DTD/svg11.dtd"><svg t="1510034313254" class="icon" style="" viewBox="0 0 1185 1024" version="1.1" xmlns="http://www.w3.org/2000/svg" p-id="5088" xmlns:xlink="http://www.w3.org/1999/xlink" width="231.4453125" height="200"><defs><style type="text/css"></style></defs><path d="M1077.894737 862.315789H404.210526L161.684211 1024v-161.684211H107.789474c-59.284211 0-107.789474-48.505263-107.789474-107.789473V107.789474C0 48.505263 48.505263 0 107.789474 0h970.105263c59.284211 0 107.789474 48.505263 107.789474 107.789474v646.736842c0 59.284211-48.505263 107.789474-107.789474 107.789473z m53.894737-754.526315c0-32.336842-21.557895-53.894737-53.894737-53.894737H107.789474c-32.336842 0-53.894737 21.557895-53.894737 53.894737v646.736842c0 32.336842 21.557895 53.894737 53.894737 53.894737h107.789473v107.789473l161.684211-107.789473h700.631579c32.336842 0 53.894737-21.557895 53.894737-53.894737V107.789474zM377.263158 377.263158h107.789474v107.789474H377.263158V377.263158z m161.68421 0h107.789474v107.789474h-107.789474V377.263158z m161.684211 0h107.789474v107.789474h-107.789474V377.263158z" fill="#429FE9" p-id="5089"></path></svg>