<?xml version="1.0" encoding="utf-8"?>
<!-- Generator: Adobe Illustrator 21.0.0, SVG Export Plug-In . SVG Version: 6.00 Build 0)  -->
<svg version="1.1" id="Layer_1" xmlns="http://www.w3.org/2000/svg" xmlns:xlink="http://www.w3.org/1999/xlink" x="0px" y="0px"
	 viewBox="0 0 60 60" style="enable-background:new 0 0 60 60;" xml:space="preserve">
<style type="text/css">
	.st0{fill:#2d90e6;}
</style>
<g>
	<path class="st0" d="M53.2,25.8c0,0-1.4-8.8-9.6-8.8c-6.2,0-7.4,4.3-7.4,4.3s-0.9-1-2.5-1c-5.4,0-6.4,6.4-6.4,6.4S19,27.2,19,34.5
		c0,7.6,6.1,8.5,6.1,8.5s25.5,0,26.7,0c1.2,0,7.2-1.6,7.2-8.5S53.2,25.8,53.2,25.8z M51,41c-1,0-24,0-24,0s-6,0.4-6-6c0-6.2,8-6,8-6
		s-0.3-6,4-6c2.4,0,4,2,4,2s1-6,6-6c7.7-0.1,8,8,8,8s6,2.1,6,8C57,40.9,52,41,51,41z M7,33v2l8,0v-2H7z M3,27h14v-2H3V27z M25,19H11
		v2l14,0V19z M1,41h16v-2H1V41z"/>
</g>
</svg>
