<?xml version="1.0" encoding="utf-8"?>
<!-- Generator: Adobe Illustrator 21.0.0, SVG Export Plug-In . SVG Version: 6.00 Build 0)  -->
<svg version="1.1" id="Layer_1" xmlns="http://www.w3.org/2000/svg" xmlns:xlink="http://www.w3.org/1999/xlink" x="0px" y="0px"
	 viewBox="0 0 121.4 34.8" style="enable-background:new 0 0 121.4 34.8;" xml:space="preserve">
<style type="text/css">
	.st0{fill:#2D90E6;}
</style>
<path id="logo" class="st0" d="M44.7,9.7l-5.9,7.4l-1.1,6.2h4l1.1-6.2l6.3-7.4C49.1,9.7,44.7,9.7,44.7,9.7z M59,9.7L57.5,18
	c-0.1,0.6-0.4,1.2-0.9,1.6c-0.4,0.3-0.8,0.5-1.3,0.5l-0.5,3c0.9,0,1.8-0.1,2.7-0.4c0.7-0.2,1.3-0.6,1.8-1c0.6-0.5,1.1-1.1,1.4-1.7
	c0.4-0.7,0.6-1.4,0.7-2.1l1.5-8.1C62.9,9.7,59,9.7,59,9.7z M54.4,20.2c-0.4,0-0.8-0.2-1.1-0.5c-0.3-0.5-0.4-1.1-0.3-1.6l1.5-8.3h-4
	l-1.5,8.1c-0.1,0.7-0.1,1.4,0,2.1c0.1,0.5,0.3,1,0.6,1.5c0.3,0.4,0.7,0.8,1.2,1.1c0.5,0.3,1.1,0.5,1.8,0.5c0.4,0.1,0.9,0.1,1.2,0.1
	L54.4,20.2z M98.3,20.2c-0.4,0-0.8-0.2-1.1-0.5c-0.3-0.5-0.4-1.1-0.3-1.6l1.5-8.3h-4L93,17.9c-0.1,0.7-0.1,1.4,0,2.1
	c0.1,0.5,0.3,1,0.6,1.5c0.3,0.4,0.7,0.8,1.2,1.1c0.5,0.3,1.1,0.5,1.8,0.5c0.4,0.1,0.9,0.1,1.2,0.1L98.3,20.2z M102.8,9.7l-1.5,8.3
	c-0.1,0.6-0.4,1.2-0.9,1.6c-0.4,0.3-0.8,0.5-1.3,0.5l-0.5,3c0.9,0,1.8-0.1,2.7-0.4c0.7-0.2,1.3-0.6,1.8-1c0.6-0.5,1.1-1.1,1.4-1.7
	c0.4-0.7,0.6-1.4,0.7-2.1l1.5-8.1C106.8,9.7,102.8,9.7,102.8,9.7z M67.9,15.8l1.1-6l0,0h-3.7l-2.4,13.2h3.7L67.9,15.8z M73.8,9.8
	l-1.3,7.3l-2.8-5.9l-1.1,6l2.8,5.9h3.7l2.4-13.2L73.8,9.8L73.8,9.8z M111.7,15.8l1.1-6l0,0h-3.7l-2.4,13.2h3.7L111.7,15.8z
	 M117.6,9.8l-1.3,7.3l-2.8-5.9l-1.1,6l2.8,5.9h3.7l2.4-13.2L117.6,9.8L117.6,9.8z M90.9,13.7c-0.1-0.7-0.3-1.4-0.7-2
	c-0.4-0.6-0.9-1-1.5-1.3C87.8,10,86.9,9.8,86,9.8h-5.9l-0.5,2.9H87l-0.1,5.1l-3.3,2.7l-2.3-2.7l1.4-4.2h-3.3l-1.7,9.5h5.9
	c0.8,0,1.6-0.1,2.4-0.3c0.7-0.2,1.4-0.5,2-1c0.7-0.5,1.2-1.2,1.6-1.9c0.5-1.1,0.9-2.2,1.1-3.4C90.9,15.5,90.9,14.6,90.9,13.7
	L90.9,13.7z M41.1,13l-1.4-3.3h-4.4l3.2,6.6L41.1,13z M27.4,3.3c0.9,0,1.8,0,2.6,0.1V0H1v11.2C8.8,6,18,3.3,27.4,3.3L27.4,3.3z
	 M21.7,13.3l0.7,8.1l-6.8,5.3l-4.9-5.3l0,0l0,0c3.9-6.9,10.5-11.9,18.2-13.7V5.5l0,0c-0.5,0-1,0-1.5,0C17.5,5.4,7.9,8.6,0,14.6
	l0,0.1l5,0l-4,8.8l6.8,5.3l7.8,6.1L30,23.5l-1.9-13.1C25.9,11.1,23.7,12.1,21.7,13.3z"/>
</svg>
