<?xml version="1.0" encoding="utf-8"?>
<!-- Generator: Adobe Illustrator 21.0.0, SVG Export Plug-In . SVG Version: 6.00 Build 0)  -->
<svg version="1.1" id="Layer_1" xmlns="http://www.w3.org/2000/svg" xmlns:xlink="http://www.w3.org/1999/xlink" x="0px" y="0px"
	 viewBox="0 0 562 63.8" style="enable-background:new 0 0 562 63.8;" xml:space="preserve">
<style type="text/css">
	.st0{fill:#010101;}
</style>
<path id="YUNDUN_V5.0" class="st0" d="M48.6,18.4H65l0.8-4.6H45.3l2.3-13.1h-4.8l-2.3,13.1H20.7l-0.8,4.6H35
	c-6.4,12.8-14.4,23-24,30.6c1,1.5,1.9,2.8,2.7,4.1c10.6-8.2,19.2-19.8,25.9-34.6h0.2l-4.8,27.2h-9.5l-0.8,4.6h9.5l-2.4,13.5h4.8
	l2.4-13.5h9.5l0.8-4.6h-9.5l4.8-27.2c1.3,15.8,5.6,27,13,33.6c1.3-1.4,2.9-3,4.6-4.8C54.9,41.3,50.4,31.7,48.6,18.4L48.6,18.4
	L48.6,18.4z M1.3,36.8c2.7-3.1,5.4-6.4,7.9-9.9L2.7,63.6h4.8l8.2-46.4c3.1-5,5.9-10.2,8.4-15.4l-4.6-1.4C14.5,11.7,8,22.2,0,31.5
	C0.5,33.3,0.9,35,1.3,36.8L1.3,36.8L1.3,36.8z M74.2,12.8l-6,22.1h15.5c-1.4,7-2.7,12.9-3.7,17.6c-0.8,3.7-2.7,5.5-5.7,5.5
	c-2.7,0-5.4-0.2-8.1-0.6c0,1.8,0,3.5-0.1,5.1c3.1,0.1,5.8,0.2,8.2,0.2c5.5,0,9-3.3,10.2-9.8c1.3-5.8,2.9-13.3,4.8-22.4h-4.1
	l6.6-26.1H72.2l-0.8,4.4h14.6l-5.5,21.7H74l4.6-17.7L74.2,12.8L74.2,12.8z M84.4,60.7h39.7l0.8-4.4h-11.3c4.1-7.3,8.1-14.7,12-22.4
	l-4.6-1.5c-3.9,8.3-8,16.3-12.5,24H85.2L84.4,60.7z M112.6,0.8c-6.1,9.5-14.2,17.5-23.8,23.5c0.9,1.3,1.8,2.7,2.5,4.1
	c8.5-5.7,15.9-12.8,22.1-20.9c3.3,7.8,8.5,14.7,14.9,20.2c1.1-1.3,2.5-2.8,4.2-4.5c-6.9-4.2-12.2-10.9-15.8-20.2l1.6-2.1H112.6
	L112.6,0.8z M96.5,28.9h26.6l0.8-4.4H97.3L96.5,28.9z M105,49.8l4.9-1.4c-0.3-4.8-0.8-10.4-1.5-16.9l-4.8,1.2
	C104.4,38.2,104.8,43.8,105,49.8L105,49.8z M94.2,52.1l5.1-1.6c-0.6-4.8-1.4-10.2-2.4-16.3l-4.8,1.4C93,41.1,93.7,46.6,94.2,52.1
	L94.2,52.1z M63.6,49.3c5.7-1.5,11.1-2.8,16.2-3.8c0.1-1.3,0.4-2.9,0.7-4.6c-6.2,1.4-11.9,2.6-17.1,3.6L63.6,49.3z M168.3,32.6
	c-2.1,11.9-6.4,20.8-13.1,26.9c1,1.4,1.9,2.8,2.7,4.1c7.6-7.3,12.6-17.6,14.9-30.8l0.6-3.2h9.5l-6,33.8h4.8l6-33.8h9.2l0.8-4.4
	h-23.5l2.6-15c6-0.3,13.4-1.1,22.1-2.2l-0.8-5c-8.3,1.7-16.7,2.6-25.1,2.6L168.3,32.6z M132.8,38.8H146l-2.8,15.8
	c-0.4,2.2-1.6,3.3-3.6,3.3c-1.4,0-3.4-0.1-5.8-0.4c0,1.8-0.1,3.5-0.2,4.9c2.3,0,4.4,0.1,6.2,0.1c4.4,0,7-2.3,7.8-6.8l3-16.8h12.6
	l0.7-4.1h-12.6l1.1-6.1h-4.6l-1.1,6.1h-13.2L132.8,38.8z M133.2,26.8h33.9l0.7-4.1H158c2.3-2.3,4.7-4.7,7.3-7.4l-4.1-2.6
	c-2.6,3.3-5.3,6.6-8.2,10h-8.5l4.1-2.6c-1.7-3.1-3.1-5.6-4.2-7.3l-3.9,2.5c1.4,2.4,2.7,4.9,3.8,7.5h-10.4L133.2,26.8z M137.9,11.8
	H168l0.7-4.1H155l2.3-1c-0.8-2.2-1.6-4.4-2.6-6.6l-4.5,1.9c0.8,2.1,1.5,4,2.1,5.7h-13.9L137.9,11.8z M128.2,54.6
	c1.3,0.7,2.6,1.5,3.8,2.3c3-3.9,6-8.3,9.2-13.1l-4-2.1C134.5,46.2,131.5,50.5,128.2,54.6L128.2,54.6L128.2,54.6z M151.5,44.5
	c1.6,3,3.1,6.1,4.3,9.3l4.6-2.8c-1.3-2.8-2.9-5.8-4.7-9L151.5,44.5z M227.1,31.1c-0.8,5.4-2.3,10.8-4.2,15.9
	c-2,4.5-4.6,8.8-7.8,12.6c0.9,1.3,1.8,2.7,2.5,4.1c6.9-7.5,11.4-17.3,13.5-29.2l1.7-9.9h3.1c-0.6,10.3,0.8,18.4,4,24.4
	c-5.1,4.1-10.7,7.5-16.7,10c0.9,1.5,1.7,3,2.4,4.6c5.9-3,11.5-6.6,16.6-10.9c3.1,4,6.9,7.4,11.1,10.1c1.3-1.4,2.9-3,4.8-4.8
	c-5.5-2.7-9.6-5.7-12.1-9c6-6.2,10.7-14.5,14.2-24.8l0.7-3.9h-27.2l1.9-10.6c7.6-0.1,17.6-0.9,30-2.3l-0.9-4.8
	c-10.9,1.7-21.8,2.6-32.8,2.7L227.1,31.1z M218.6,34.4H207l1.8-10.2h16.6l0.7-4h-5.4l3.4-19.3h-4.5l-3.4,19.3h-6.7l3.1-17.6h-4.5
	l-5.8,32.9c-1.9,11-4.9,19.1-9,24.5c1.2,1.1,2.2,2.4,3.1,3.7c4.5-6.6,7.8-15,9.8-25.3h7.1L209,62.8h4.5L218.6,34.4z M243.6,45.4
	c-2.6-5.4-3.7-12.3-3.2-20.7h14.7C252.1,33.4,248.2,40.3,243.6,45.4L243.6,45.4L243.6,45.4z M310.7,28.4l-9.2,13.4
	c-0.4,0.6-0.8,1.2-1.1,1.9h-0.1c-0.2-1.3-0.4-1.9-0.4-1.9l-4.2-13.4h-4.5l6.3,19.2l-1.9,11h3.9l2-11.1l13.3-19.1L310.7,28.4
	L310.7,28.4z M341.4,28.4h-3.9l-3.3,18.5c-1,5.9-4,8.8-8.9,8.8c-5.1,0-7.1-3-6-9.1l3.2-18.2h-3.9l-3.2,18.4
	c-1.5,8.3,1.5,12.4,9,12.4c7.8,0,12.4-4.3,13.9-12.8L341.4,28.4z M373.6,28.4h-3.9L366,49.2c-0.3,1.5-0.5,2.9-0.6,4.4h-0.1
	c-0.2-0.7-0.5-1.4-0.9-2.1l-10.7-23.1h-4.9l-5.3,30.3h3.9l3.8-21.3c0.3-1.4,0.5-2.8,0.6-4.2h0.1c0.2,0.7,0.4,1.3,0.7,2l11.1,23.5
	h4.6L373.6,28.4z M384.4,58.6c4.5,0.1,9-1.4,12.5-4.2c3.5-2.8,5.9-6.8,6.5-11.3c0.8-4.5-0.1-8.1-2.7-10.7c-2.6-2.7-6.1-4-10.7-4
	h-8.6l-5.3,30.3L384.4,58.6L384.4,58.6z M389.2,31.9c3.6,0,6.3,1,8.2,2.9c1.9,1.9,2.5,4.7,1.8,8.5c-0.5,3.4-2.2,6.6-4.8,8.8
	c-2.7,2.2-6.1,3.3-9.5,3.1h-4.4l4.1-23.3L389.2,31.9L389.2,31.9z M434.3,28.4h-3.9l-3.3,18.5c-1,5.9-4,8.8-8.9,8.8
	c-5.1,0-7.1-3-6-9.1l3.2-18.2h-3.9l-3.2,18.4c-1.5,8.3,1.5,12.4,9,12.4c7.8,0,12.4-4.3,13.9-12.8L434.3,28.4z M466.4,28.4h-3.9
	l-3.7,20.8c-0.3,1.5-0.5,2.9-0.6,4.4h-0.1c-0.2-0.7-0.5-1.4-0.9-2.1l-10.7-23.1h-4.9l-5.3,30.3h3.9l3.8-21.3
	c0.3-1.4,0.5-2.8,0.6-4.2h0.1c0.2,0.7,0.4,1.3,0.7,2l11.1,23.5h4.6L466.4,28.4z M504.7,28.4L492.2,52c-0.5,0.9-0.9,1.8-1.2,2.8H491
	c0.1-0.9,0-1.8-0.1-2.7l-4-23.7h-4.3l5.6,30.3h4.3l16.4-30.3H504.7L504.7,28.4z M507.5,57.9c1.3,0.8,3.3,1.2,6.2,1.2
	c3,0.1,6-0.9,8.4-2.7c2.2-1.8,3.7-4.3,4.1-7.1c0.5-2.8,0-5.1-1.5-6.7c-1.5-1.6-3.8-2.4-7-2.4c-0.6,0-1.4,0-2.6,0.1l1.5-8.6h11.3
	l0.6-3.4h-14.9l-2.7,15.4c2-0.2,3.6-0.3,4.8-0.3c2.5,0,4.2,0.5,5.4,1.6c1.1,1.2,1.6,2.9,1.1,4.5c-0.3,1.8-1.3,3.5-2.7,4.6
	c-1.5,1.2-3.4,1.8-5.3,1.7c-2.2,0-4.3-0.7-6-2L507.5,57.9z M530.4,58.4c0.4,0.5,1,0.8,1.7,0.7c1.5,0,2.7-1,3-2.5
	c0.1-0.6,0-1.3-0.4-1.8c-0.4-0.5-1-0.8-1.7-0.7c-0.7,0-1.4,0.3-1.9,0.7c-0.5,0.4-0.9,1.1-1,1.8C529.9,57.2,530,57.9,530.4,58.4
	L530.4,58.4z M541.9,55.3c1.1,2.5,3.7,4,6.5,3.8c3.2,0,6.3-1.5,8.3-4.1c2.3-2.7,3.9-6.6,4.8-11.7c1.8-10.3-0.5-15.5-6.9-15.5
	c-3.3,0-6.4,1.5-8.4,4.1c-2.3,2.7-3.9,6.8-4.8,12.1C540.4,49,540.6,52.7,541.9,55.3L541.9,55.3z M553.7,31.1c3.9,0,5.2,4.2,3.7,12.7
	c-1.4,8.2-4.2,12.2-8.2,12.2c-4.1,0-5.4-4-4-12.1C546.8,35.3,549.6,31.1,553.7,31.1L553.7,31.1L553.7,31.1z"/>
</svg>
